<?xml version="1.0" encoding="UTF-8"?>
<svg version="1.1" xmlns="http://www.w3.org/2000/svg" width="256" height="256">
<path d="M0 0 C0.80717097 -0.00453111 1.61434193 -0.00906223 2.44597262 -0.01373065 C5.1480967 -0.02638122 7.8500194 -0.02475385 10.5521698 -0.02310181 C12.49064391 -0.02908666 14.42911564 -0.03589211 16.36758423 -0.04345703 C21.63213295 -0.06112903 26.89661666 -0.06581293 32.16119218 -0.0670886 C35.4510117 -0.06851013 38.74081469 -0.07277978 42.03063011 -0.07808304 C53.50982589 -0.0965876 64.98897522 -0.10475315 76.46818542 -0.10317993 C87.16492397 -0.10197856 97.86146072 -0.123079 108.55814821 -0.15466726 C117.74471956 -0.18082831 126.931225 -0.19154729 136.11783332 -0.19026911 C141.60326364 -0.18975941 147.08851466 -0.19544722 152.57390785 -0.21662521 C157.73432934 -0.23600448 162.89440044 -0.23613406 168.05483437 -0.22159195 C169.94623832 -0.21950235 171.83766419 -0.22421377 173.72903061 -0.23631287 C176.31658981 -0.25179023 178.90294454 -0.24244125 181.49047852 -0.22705078 C182.60602016 -0.24248147 182.60602016 -0.24248147 183.74409801 -0.25822389 C190.49863649 -0.16979624 195.49755437 2.27256707 200.68571472 6.51742554 C205.69940977 12.64527504 207.83547966 18.00426715 207.48649597 26.04086304 C206.39286814 32.44750554 203.16399332 37.73217791 199.93571472 43.26742554 C199.21907654 44.51217651 199.21907654 44.51217651 198.48796082 45.78207397 C195.62011532 50.75870801 192.72188492 55.71676504 189.80680847 60.66586304 C185.83560625 67.41801638 181.94031591 74.2123496 178.06071472 81.01742554 C177.38845417 82.19566037 176.71617218 83.37388298 176.04386902 84.55209351 C174.00667993 88.12322278 171.97105203 91.69524061 169.93571472 95.26742554 C167.22882093 100.0182475 164.52092973 104.76849731 161.81071472 109.51742554 C161.47867035 110.09934662 161.14662598 110.6812677 160.80451965 111.28082275 C155.59794937 120.40155451 150.32123445 129.47974606 145.01335144 138.5418396 C141.09213915 145.24955848 137.2453903 151.99582392 133.43571472 158.76742554 C131.2721376 162.60251105 129.10501842 166.43557655 126.93571472 170.26742554 C126.03707703 171.8565979 126.03707703 171.8565979 125.12028503 173.47787476 C123.27723784 176.72613682 121.42071064 179.96634441 119.56071472 183.20492554 C119.00190613 184.19363647 118.44309753 185.18234741 117.86735535 186.20101929 C112.89286003 194.81322521 108.19422893 202.33554569 98.48258972 205.64633179 C91.64059143 207.31485591 85.12229094 206.77355094 78.93571472 203.26742554 C72.22034206 198.87000111 68.97685579 192.08605022 65.12321472 185.26742554 C64.37924505 183.97155323 63.63402275 182.67639935 62.88761902 181.38192749 C61.3372988 178.69105923 59.79240677 175.99718267 58.25114441 173.30111694 C54.98440876 167.59708356 51.64859801 161.93380917 48.31492615 156.26873779 C46.53927831 153.24946591 44.76869228 150.22723124 42.99821472 147.20492554 C42.65489105 146.61894089 42.31156738 146.03295624 41.95783997 145.42921448 C36.83830391 136.68918381 31.737543 127.9382004 26.63737488 119.18685913 C23.73819447 114.21291375 20.83685277 109.24022926 17.93571472 104.26742554 C14.46984252 98.3266182 11.00433387 92.38560129 7.54118347 86.44320679 C6.97842712 85.47786011 6.41567078 84.51251343 5.83586121 83.51791382 C4.69572526 81.5620484 3.55591311 79.6059942 2.41642761 77.64974976 C-0.50851379 72.63241004 -3.44245846 67.62060925 -6.39395142 62.61885071 C-7.93048136 60.01488169 -9.46478255 57.40960169 -10.99919128 54.80438232 C-11.73920271 53.54961344 -12.48039547 52.29554035 -13.22288513 51.04223633 C-26.6721987 28.33905797 -26.6721987 28.33905797 -25.06428528 17.26742554 C-23.24045354 10.61780297 -18.64326229 6.11141342 -13.06428528 2.26742554 C-8.75115176 0.09042932 -4.73389468 -0.01953904 0 0 Z " fill="#DC5695" transform="translate(37.06428527832031,24.732574462890625)"/>
<path d="M0 0 C8.89067374 5.45254267 16.6954152 13.78368594 19.2421875 24.109375 C21.1268933 35.93633615 19.69734543 46.78219348 12.61328125 56.640625 C4.95823861 65.59358144 -3.66821797 71.01183593 -15.54296875 72.06640625 C-27.64321507 72.39077183 -36.58898889 69.01400807 -45.5 60.77734375 C-53.61595909 52.26548422 -57.11637579 43.80131736 -56.91967773 32.12670898 C-56.36176059 21.5049616 -52.14118362 13.58611295 -44.80078125 5.9765625 C-32.10491734 -5.31311395 -15.25196486 -7.97087611 0 0 Z " fill="#FEFDFD" transform="translate(146.33203125,64.21875)"/>
</svg>
