<svg width="130" height="72" viewBox="0 0 130 72" fill="none" xmlns="http://www.w3.org/2000/svg">
<path d="M20.5657 48.36C19.2951 48.36 18.1406 48.0982 17.1021 47.5745C16.0636 47.0509 15.2601 46.2952 14.6977 45.3074L15.0905 44.6737V48H11.8232V25.1055H15.2423V35.0249L14.6977 34.2395C15.3018 33.3112 16.1082 32.5852 17.1169 32.0616C18.1257 31.538 19.2743 31.2761 20.5657 31.2761C22.119 31.2761 23.5146 31.648 24.7555 32.3948C25.9963 33.1416 26.9723 34.1591 27.6895 35.4504C28.4036 36.7417 28.7637 38.1936 28.7637 39.8062C28.7637 41.4187 28.4066 42.8707 27.6895 44.1619C26.9723 45.4532 25.9993 46.4767 24.7703 47.2324C23.5414 47.9881 22.1399 48.3659 20.5657 48.3659V48.36ZM20.2325 45.1854C21.1995 45.1854 22.0565 44.9533 22.8034 44.4892C23.5503 44.0251 24.1395 43.3854 24.5739 42.5702C25.0084 41.7549 25.2256 40.8326 25.2256 39.8032C25.2256 38.7737 25.0084 37.8574 24.5739 37.0511C24.1395 36.2448 23.5503 35.6111 22.8034 35.1469C22.0565 34.6828 21.1995 34.4507 20.2325 34.4507C19.2654 34.4507 18.4322 34.6828 17.6764 35.1469C16.9205 35.6111 16.3254 36.2448 15.891 37.0511C15.4565 37.8574 15.2393 38.7737 15.2393 39.8032C15.2393 40.8326 15.4565 41.7549 15.891 42.5702C16.3254 43.3854 16.9205 44.028 17.6764 44.4892C18.4322 44.9533 19.2832 45.1854 20.2325 45.1854Z" fill="#6B3B90"/>
<path d="M49.8145 47.9973V31.6364H53.0817V34.8408L52.6889 34.4183C53.0907 33.3888 53.7364 32.6093 54.6261 32.0738C55.5128 31.5412 56.5424 31.2734 57.7119 31.2734C58.8813 31.2734 59.9912 31.5353 60.9166 32.0589C61.8451 32.5825 62.5711 33.3085 63.0948 34.2368C63.6185 35.1651 63.8804 36.2332 63.8804 37.4411V47.9973H60.4941V38.3486C60.4941 37.5215 60.3423 36.8223 60.0418 36.248C59.7383 35.6738 59.3098 35.2305 58.7563 34.9181C58.2028 34.6057 57.572 34.448 56.8668 34.448C56.1615 34.448 55.5307 34.6057 54.9772 34.9181C54.4238 35.2305 53.9953 35.6798 53.6917 36.2629C53.3882 36.849 53.2394 37.5423 53.2394 38.3486V47.9973H49.8204H49.8145Z" fill="#6B3B90"/>
<path d="M75.0978 48.3601C73.5237 48.3601 72.1192 47.9822 70.8783 47.2265C69.6375 46.4708 68.6585 45.4473 67.9443 44.1561C67.2272 42.8648 66.8701 41.4159 66.8701 39.8003C66.8701 38.1847 67.2331 36.7358 67.9592 35.4445C68.6853 34.1533 69.6643 33.1357 70.8932 32.389C72.1222 31.6422 73.5148 31.2703 75.0681 31.2703C76.3774 31.2703 77.5379 31.5321 78.5466 32.0557C79.5554 32.5794 80.3499 33.3053 80.9361 34.2336L80.4213 35.0191V25.0996H83.8076V47.9941H80.5701V44.6678L80.9628 45.3015C80.3975 46.2893 79.5911 47.045 78.5436 47.5687C77.4962 48.0923 76.3446 48.3541 75.0948 48.3541L75.0978 48.3601ZM75.4311 45.1855C76.3774 45.1855 77.2314 44.9534 77.9872 44.4893C78.743 44.0252 79.3381 43.3855 79.7726 42.5703C80.207 41.755 80.4243 40.8327 80.4243 39.8033C80.4243 38.7738 80.207 37.8575 79.7726 37.0512C79.3381 36.2449 78.743 35.6112 77.9872 35.147C77.2314 34.6829 76.3803 34.4508 75.4311 34.4508C74.4819 34.4508 73.6249 34.6829 72.8601 35.147C72.0924 35.6112 71.5002 36.2449 71.0747 37.0512C70.6522 37.8575 70.4409 38.7738 70.4409 39.8033C70.4409 40.8327 70.6522 41.755 71.0747 42.5703C71.4973 43.3855 72.0894 44.0281 72.8452 44.4893C73.6011 44.9534 74.464 45.1855 75.4311 45.1855Z" fill="#6B3B90"/>
<path d="M87.8027 47.9971V25.1025H91.2218V47.9971H87.8027Z" fill="#6B3B90"/>
<path d="M102.896 48.3603C101.262 48.3603 99.8158 47.9824 98.5541 47.2267C97.2924 46.471 96.3105 45.4416 95.6052 44.1414C94.9 42.8412 94.5459 41.3833 94.5459 39.7707C94.5459 38.1582 94.903 36.6557 95.6201 35.3852C96.3343 34.1148 97.2984 33.1121 98.5095 32.3773C99.7206 31.6424 101.089 31.2734 102.622 31.2734C103.851 31.2734 104.952 31.4847 105.919 31.9072C106.886 32.3296 107.704 32.9098 108.368 33.6447C109.034 34.3796 109.543 35.2216 109.894 36.1707C110.245 37.1198 110.424 38.1254 110.424 39.1935C110.424 39.4554 110.415 39.7291 110.394 40.0088C110.373 40.2914 110.335 40.5532 110.272 40.7942H97.2359V38.0719H108.335L106.701 39.3126C106.904 38.3248 106.838 37.4441 106.505 36.6676C106.172 35.891 105.669 35.2751 104.993 34.8229C104.318 34.3707 103.526 34.1416 102.619 34.1416C101.711 34.1416 100.905 34.3677 100.2 34.8229C99.4944 35.2751 98.9499 35.9208 98.566 36.7598C98.1821 37.5958 98.0304 38.6104 98.1107 39.8005C98.0096 40.9103 98.1673 41.8772 98.5809 42.7043C98.9945 43.5315 99.5777 44.1771 100.337 44.6412C101.092 45.1054 101.955 45.3374 102.922 45.3374C103.889 45.3374 104.752 45.1173 105.449 44.671C106.145 44.2277 106.693 43.6534 107.097 42.9483L109.879 44.308C109.558 45.0756 109.058 45.7659 108.383 46.3788C107.707 46.9946 106.901 47.4766 105.964 47.8307C105.026 48.1847 104.003 48.3603 102.893 48.3603H102.896Z" fill="#6B3B90"/>
<path d="M115.692 48.36C117.411 48.36 118.804 46.9666 118.804 45.2479C118.804 43.5291 117.411 42.1357 115.692 42.1357C113.973 42.1357 112.579 43.5291 112.579 45.2479C112.579 46.9666 113.973 48.36 115.692 48.36Z" fill="#DA5696"/>
<path d="M40.2744 47.6852L47.782 34.6209C48.4842 33.3981 47.5796 31.8896 46.1424 31.8896H30.9993C29.5561 31.8896 28.6515 33.41 29.3656 34.6328L37.0012 47.6971C37.7242 48.9378 39.5602 48.9289 40.2744 47.6852Z" fill="#DC5695"/>
<path d="M38.7502 40.6734C40.4692 40.6734 41.8628 39.2801 41.8628 37.5613C41.8628 35.8426 40.4692 34.4492 38.7502 34.4492C37.0312 34.4492 35.6377 35.8426 35.6377 37.5613C35.6377 39.2801 37.0312 40.6734 38.7502 40.6734Z" fill="white"/>
</svg>
