<svg width="16" height="16" viewBox="0 0 16 16" fill="none" xmlns="http://www.w3.org/2000/svg">
<path d="M6 10C6 8.1144 6 7.1716 6.58579 6.58579C7.1716 6 8.1144 6 10 6H10.6667C12.5523 6 13.4951 6 14.0809 6.58579C14.6667 7.1716 14.6667 8.1144 14.6667 10V10.6667C14.6667 12.5523 14.6667 13.4951 14.0809 14.0809C13.4951 14.6667 12.5523 14.6667 10.6667 14.6667H10C8.1144 14.6667 7.1716 14.6667 6.58579 14.0809C6 13.4951 6 12.5523 6 10.6667V10Z" stroke="#191B1F" stroke-opacity="0.6" stroke-linecap="round" stroke-linejoin="round"/>
<path d="M11.3329 6.00016C11.3313 4.02877 11.3015 3.00764 10.7277 2.30845C10.6169 2.17342 10.4931 2.04962 10.3581 1.9388C9.62047 1.3335 8.52467 1.3335 6.33301 1.3335C4.14135 1.3335 3.04553 1.3335 2.30796 1.9388C2.17293 2.04961 2.04913 2.17342 1.93831 2.30845C1.33301 3.04602 1.33301 4.14184 1.33301 6.3335C1.33301 8.52516 1.33301 9.62096 1.93831 10.3586C2.04912 10.4936 2.17293 10.6174 2.30796 10.7282C3.00715 11.302 4.02828 11.3318 5.99967 11.3334" stroke="#191B1F" stroke-opacity="0.6" stroke-linecap="round" stroke-linejoin="round"/>
</svg>
